<svg width="245" height="243" viewBox="0 0 245 243" fill="none" xmlns="http://www.w3.org/2000/svg">
<rect width="244.013" height="242.974" rx="8.30682" fill="#7F3D98"/>
<path fill-rule="evenodd" clip-rule="evenodd" d="M165.651 4.43892C163.169 5.36092 144.54 23.5229 144.54 25.0209C144.54 25.4889 146.564 27.8579 149.037 30.2849L153.535 34.6989L157.65 30.7439C171.27 17.6499 174.529 13.7799 174.535 10.6929C174.543 5.95092 170.065 2.79792 165.651 4.43892ZM71.6126 6.92292C69.1036 10.1119 69.0496 11.1179 71.2116 14.3149C73.5156 17.7239 90.1106 34.2879 91.2216 34.2879C91.7176 34.2879 94.1156 32.2579 96.5516 29.7759L100.98 25.2639L90.5276 14.7759C81.6096 5.82792 79.6066 4.28792 76.8796 4.28792C74.6196 4.28792 73.0786 5.05892 71.6126 6.92292ZM117.815 25.3249C116.041 25.7099 113.464 26.7629 112.087 27.6649C110.71 28.5669 91.3596 47.5489 69.0856 69.8459C31.6696 107.303 28.4746 110.769 27.1006 115.396C25.5306 120.681 25.8696 124.815 28.2786 129.788C30.4086 134.183 109.263 213.019 113.987 215.477C119.992 218.6 128.002 217.6 134.275 212.943C141.617 207.493 215.046 133.234 216.901 129.384C218.877 125.28 219.029 117.68 217.219 113.377C215.889 110.213 207.999 102.005 169.855 64.1069C158.407 52.7319 145.671 39.9759 141.552 35.7599C137.434 31.5429 132.934 27.5239 131.552 26.8289C128.231 25.1559 121.823 24.4549 117.815 25.3249ZM50.7286 27.3269C49.3496 28.6119 48.5396 30.5609 48.5396 32.5959C48.5396 35.3509 49.9756 37.2559 58.3076 45.5569C63.6796 50.9089 68.6896 55.2879 69.4406 55.2879C71.0336 55.2879 78.5376 48.2669 78.5386 46.7749C78.5396 45.4639 60.7186 27.9389 57.8556 26.4349C54.7566 24.8079 53.2266 24.9989 50.7286 27.3269ZM176.741 35.6899C166.581 45.6179 166.157 46.1979 167.427 48.4399C168.158 49.7309 170.28 52.0669 172.142 53.6309L175.528 56.4739L184.619 47.6309C196.992 35.5949 198.813 31.7719 194.226 27.4619C190.131 23.6159 188.133 24.5559 176.741 35.6899ZM28.7136 49.6019C24.8346 53.7319 25.7876 55.7829 36.7616 66.9169C42.3836 72.6209 47.4576 77.2879 48.0366 77.2879C48.6156 77.2879 51.0456 75.2089 53.4366 72.6679L57.7846 68.0479L47.3156 57.6679C35.7816 46.2309 33.0096 45.0289 28.7136 49.6019ZM197.965 57.4089C192.231 63.0509 187.54 67.9239 187.54 68.2379C187.54 69.1569 195.689 77.2879 196.61 77.2879C198.062 77.2879 215.658 59.9239 217.191 56.9779C218.51 54.4429 218.472 53.8549 216.798 50.9779C215.408 48.5879 214.121 47.7079 211.666 47.4689C208.696 47.1799 207.417 48.1079 197.965 57.4089ZM9.03963 69.4589C6.24163 71.0789 5.57263 72.3209 5.55463 75.9259C5.54263 78.5359 7.01163 80.5599 14.2896 87.9539C27.0486 100.916 25.8396 100.392 31.0866 95.2419C33.5356 92.8379 35.5396 90.4779 35.5396 89.9959C35.5396 88.2689 15.8356 69.4019 13.4636 68.8569C12.1306 68.5509 10.1396 68.8219 9.03963 69.4589ZM230.04 69.4659C227.189 71.0579 209.555 88.5799 209.547 89.8299C209.543 90.4029 211.57 92.8639 214.051 95.2989L218.562 99.7259L228.122 90.2569C233.38 85.0489 238.271 79.6629 238.991 78.2879C240.573 75.2649 239.607 72.1489 236.389 69.8949C233.708 68.0169 232.75 67.9519 230.04 69.4659ZM16.1256 152.768C11.2226 157.855 6.60763 162.842 5.87063 163.85C3.22263 167.472 7.00163 173.288 12.0036 173.288C14.6436 173.288 16.8156 171.675 25.3486 163.378C30.9536 157.927 35.5396 153.107 35.5396 152.666C35.5396 151.402 27.2406 143.275 26.0816 143.403C25.5086 143.466 21.0276 147.68 16.1256 152.768ZM213.572 147.301C211.664 149.389 209.942 151.583 209.744 152.177C209.546 152.771 213.93 157.791 219.486 163.332C229.022 172.841 229.796 173.389 233.283 173.097C237.592 172.737 240.25 169.21 239.221 165.219C238.508 162.456 219.997 143.23 218.209 143.397C217.566 143.457 215.479 145.214 213.572 147.301ZM37.6546 174.368C32.0756 179.971 27.2426 185.623 26.9146 186.929C26.1486 189.982 28.7866 194.061 32.0596 194.882C33.6586 195.284 35.5386 194.87 37.2966 193.731C42.1586 190.58 56.5176 175.846 56.5286 173.996C56.5396 172.223 55.5126 170.961 50.4186 166.485L47.7976 164.182L37.6546 174.368ZM191.658 169.406C189.393 171.67 187.54 173.851 187.54 174.251C187.54 174.651 192.237 179.548 197.977 185.133C209.381 196.228 211.33 197.066 215.894 192.836C218.841 190.105 219.052 189.146 217.408 185.972C215.844 182.953 198.357 165.288 196.932 165.288C196.296 165.288 193.922 167.141 191.658 169.406ZM58.6946 196.725C47.8676 207.854 46.3896 211.032 50.3686 214.633C54.3986 218.28 57.4486 216.905 68.3206 206.538C73.9446 201.175 78.5446 196.19 78.5426 195.46C78.5396 194.166 70.7626 186.288 69.4886 186.288C69.1366 186.288 64.2796 190.985 58.6946 196.725ZM170.699 190.365C168.412 192.607 166.54 194.984 166.54 195.646C166.54 196.308 171.052 201.223 176.568 206.569C187.426 217.093 190.44 218.388 194.54 214.288C196.824 212.004 196.931 210.898 195.245 207.012C194.109 204.395 176.849 186.288 175.491 186.288C175.143 186.288 172.987 188.123 170.699 190.365ZM79.7646 218.75C73.4186 225.244 69.5396 230.003 69.5396 231.296C69.5396 234.196 73.9276 238.288 77.0386 238.288C78.9516 238.288 82.1226 235.87 89.1646 229.038C94.4096 223.95 99.1066 219.046 99.6016 218.139C100.285 216.887 99.5436 215.503 96.5216 212.389C94.3326 210.133 91.9676 208.288 91.2656 208.288C90.5646 208.288 85.3886 212.996 79.7646 218.75ZM148.79 212.349C146.452 214.555 144.54 216.661 144.54 217.028C144.54 217.396 149.153 222.329 154.79 227.992C165.618 238.868 167.749 239.931 172.317 236.731C173.865 235.647 174.54 234.153 174.54 231.809C174.54 228.901 173.206 227.076 164.712 218.366C159.307 212.823 154.47 208.299 153.962 208.313C153.455 208.327 151.128 210.143 148.79 212.349Z" fill="#60C7CF"/>
<path fill-rule="evenodd" clip-rule="evenodd" d="M112.016 76.8069C110.02 77.8899 96.3313 99.7479 94.1273 105.372C93.8033 106.197 92.9513 107.467 92.2333 108.193C90.3423 110.107 90.6293 113.074 92.9273 115.372C96.8453 119.29 98.8943 117.809 106.113 105.845C119.586 83.5149 120.931 79.7269 116.427 76.7989C114.785 75.7319 113.995 75.7329 112.016 76.8069ZM125.552 77.8889C122.667 80.7749 122.302 79.9609 140.512 111.286C141.658 113.258 143.765 115.532 145.193 116.339C147.544 117.667 147.986 117.628 149.859 115.934C153.405 112.725 152.548 110.001 142.915 93.8719C140.287 89.4719 137.012 83.8469 135.638 81.3719C133.66 77.8099 132.517 76.8089 130.158 76.5679C128.39 76.3879 126.517 76.9249 125.552 77.8889ZM72.9753 111.324C70.0413 114.258 70.3913 117.16 73.9223 119.169C77.2233 121.046 77.6913 122.236 82.8543 141.872C86.7013 156.504 88.5383 160.424 92.4193 162.281C94.0653 163.069 96.0093 164.311 96.7403 165.043C98.8083 167.11 110.2 166.766 114.41 164.509C118.667 162.228 127.641 162.358 131.056 164.75C132.592 165.826 135.476 166.372 139.62 166.372C145.003 166.372 146.481 165.94 150.292 163.254C152.725 161.539 155.186 159.177 155.76 158.004C156.654 156.182 161.163 140.227 164.911 125.629C165.694 122.58 166.8 120.972 168.843 119.916C173.288 117.617 174.05 114.495 170.927 111.372C169.43 109.875 167.594 109.372 163.627 109.372C158.114 109.372 155.927 110.549 155.927 113.516C155.927 114.476 154.86 116.501 153.557 118.016C151.753 120.113 150.289 120.772 147.434 120.772C143.593 120.772 143.791 120.931 135.42 111.122C134.146 109.628 132.096 109.372 121.425 109.372H108.924L105.314 114.396C103.329 117.16 100.828 119.89 99.7573 120.463C95.3783 122.807 88.6453 118.719 87.0583 112.753C86.3423 110.062 85.9213 109.852 80.6583 109.574C76.0613 109.33 74.6473 109.652 72.9753 111.324ZM100.32 130.954C100.654 131.824 100.927 136.944 100.927 142.331C100.927 149.688 100.564 152.428 99.4713 153.336C98.6703 154 97.5453 154.254 96.9713 153.899C95.8243 153.191 95.4763 131.156 96.5943 130.039C97.7763 128.857 99.6963 129.328 100.32 130.954ZM115.995 140.952C116.425 149.206 116.244 152.228 115.253 153.329C112.554 156.328 111.563 152.966 111.823 141.686C112.081 130.444 112.37 129.022 114.269 129.649C115.004 129.891 115.635 134.021 115.995 140.952ZM131.679 140.884C131.951 152.697 131.198 155.672 128.503 153.435C127.265 152.407 126.927 150.029 126.927 142.331C126.927 131.389 127.436 129.132 129.803 129.585C131.165 129.846 131.468 131.665 131.679 140.884ZM146.708 141.622C146.476 151.719 146.163 153.872 144.927 153.872C143.703 153.872 143.375 151.863 143.141 142.936C142.829 130.966 143.097 129.372 145.426 129.372C146.773 129.372 146.95 131.063 146.708 141.622Z" fill="#7F3D98"/>
</svg>
