<svg width="235" height="235" viewBox="0 0 235 235" fill="none" xmlns="http://www.w3.org/2000/svg">
<path fill-rule="evenodd" clip-rule="evenodd" d="M160.651 0.438919C158.169 1.36092 139.54 19.5229 139.54 21.0209C139.54 21.4889 141.564 23.8579 144.037 26.2849L148.535 30.6989L152.65 26.7439C166.27 13.6499 169.529 9.77992 169.535 6.69292C169.543 1.95092 165.065 -1.20208 160.651 0.438919ZM66.6126 2.92292C64.1036 6.11192 64.0496 7.11792 66.2116 10.3149C68.5156 13.7239 85.1106 30.2879 86.2216 30.2879C86.7176 30.2879 89.1156 28.2579 91.5516 25.7759L95.9796 21.2639L85.5276 10.7759C76.6096 1.82792 74.6066 0.287919 71.8796 0.287919C69.6196 0.287919 68.0786 1.05892 66.6126 2.92292ZM112.815 21.3249C111.041 21.7099 108.464 22.7629 107.087 23.6649C105.71 24.5669 86.3596 43.5489 64.0856 65.8459C26.6696 103.303 23.4746 106.769 22.1006 111.396C20.5306 116.681 20.8696 120.815 23.2786 125.788C25.4086 130.183 104.263 209.019 108.987 211.477C114.992 214.6 123.002 213.6 129.275 208.943C136.617 203.493 210.046 129.234 211.901 125.384C213.877 121.28 214.029 113.68 212.219 109.377C210.889 106.213 202.999 98.0049 164.855 60.1069C153.407 48.7319 140.671 35.9759 136.552 31.7599C132.434 27.5429 127.934 23.5239 126.552 22.8289C123.231 21.1559 116.823 20.4549 112.815 21.3249ZM45.7286 23.3269C44.3496 24.6119 43.5396 26.5609 43.5396 28.5959C43.5396 31.3509 44.9756 33.2559 53.3076 41.5569C58.6796 46.9089 63.6896 51.2879 64.4406 51.2879C66.0336 51.2879 73.5376 44.2669 73.5386 42.7749C73.5396 41.4639 55.7186 23.9389 52.8556 22.4349C49.7566 20.8079 48.2266 20.9989 45.7286 23.3269ZM171.741 31.6899C161.581 41.6179 161.157 42.1979 162.427 44.4399C163.158 45.7309 165.28 48.0669 167.142 49.6309L170.528 52.4739L179.619 43.6309C191.992 31.5949 193.813 27.7719 189.226 23.4619C185.131 19.6159 183.133 20.5559 171.741 31.6899ZM23.7136 45.6019C19.8346 49.7319 20.7876 51.7829 31.7616 62.9169C37.3836 68.6209 42.4576 73.2879 43.0366 73.2879C43.6156 73.2879 46.0456 71.2089 48.4366 68.6679L52.7846 64.0479L42.3156 53.6679C30.7816 42.2309 28.0096 41.0289 23.7136 45.6019ZM192.965 53.4089C187.231 59.0509 182.54 63.9239 182.54 64.2379C182.54 65.1569 190.689 73.2879 191.61 73.2879C193.062 73.2879 210.658 55.9239 212.191 52.9779C213.51 50.4429 213.472 49.8549 211.798 46.9779C210.408 44.5879 209.121 43.7079 206.666 43.4689C203.696 43.1799 202.417 44.1079 192.965 53.4089ZM4.03963 65.4589C1.24163 67.0789 0.572629 68.3209 0.554629 71.9259C0.542629 74.5359 2.01163 76.5599 9.28963 83.9539C22.0486 96.9159 20.8396 96.3919 26.0866 91.2419C28.5356 88.8379 30.5396 86.4779 30.5396 85.9959C30.5396 84.2689 10.8356 65.4019 8.46363 64.8569C7.13063 64.5509 5.13963 64.8219 4.03963 65.4589ZM225.04 65.4659C222.189 67.0579 204.555 84.5799 204.547 85.8299C204.543 86.4029 206.57 88.8639 209.051 91.2989L213.562 95.7259L223.122 86.2569C228.38 81.0489 233.271 75.6629 233.991 74.2879C235.573 71.2649 234.607 68.1489 231.389 65.8949C228.708 64.0169 227.75 63.9519 225.04 65.4659ZM11.1256 148.768C6.22263 153.855 1.60763 158.842 0.870629 159.85C-1.77737 163.472 2.00163 169.288 7.00363 169.288C9.64363 169.288 11.8156 167.675 20.3486 159.378C25.9536 153.927 30.5396 149.107 30.5396 148.666C30.5396 147.402 22.2406 139.275 21.0816 139.403C20.5086 139.466 16.0276 143.68 11.1256 148.768ZM208.572 143.301C206.664 145.389 204.942 147.583 204.744 148.177C204.546 148.771 208.93 153.791 214.486 159.332C224.022 168.841 224.796 169.389 228.283 169.097C232.592 168.737 235.25 165.21 234.221 161.219C233.508 158.456 214.997 139.23 213.209 139.397C212.566 139.457 210.479 141.214 208.572 143.301ZM32.6546 170.368C27.0756 175.971 22.2426 181.623 21.9146 182.929C21.1486 185.982 23.7866 190.061 27.0596 190.882C28.6586 191.284 30.5386 190.87 32.2966 189.731C37.1586 186.58 51.5176 171.846 51.5286 169.996C51.5396 168.223 50.5126 166.961 45.4186 162.485L42.7976 160.182L32.6546 170.368ZM186.658 165.406C184.393 167.67 182.54 169.851 182.54 170.251C182.54 170.651 187.237 175.548 192.977 181.133C204.381 192.228 206.33 193.066 210.894 188.836C213.841 186.105 214.052 185.146 212.408 181.972C210.844 178.953 193.357 161.288 191.932 161.288C191.296 161.288 188.922 163.141 186.658 165.406ZM53.6946 192.725C42.8676 203.854 41.3896 207.032 45.3686 210.633C49.3986 214.28 52.4486 212.905 63.3206 202.538C68.9446 197.175 73.5446 192.19 73.5426 191.46C73.5396 190.166 65.7626 182.288 64.4886 182.288C64.1366 182.288 59.2796 186.985 53.6946 192.725ZM165.699 186.365C163.412 188.607 161.54 190.984 161.54 191.646C161.54 192.308 166.052 197.223 171.568 202.569C182.426 213.093 185.44 214.388 189.54 210.288C191.824 208.004 191.931 206.898 190.245 203.012C189.109 200.395 171.849 182.288 170.491 182.288C170.143 182.288 167.987 184.123 165.699 186.365ZM74.7646 214.75C68.4186 221.244 64.5396 226.003 64.5396 227.296C64.5396 230.196 68.9276 234.288 72.0386 234.288C73.9516 234.288 77.1226 231.87 84.1646 225.038C89.4096 219.95 94.1066 215.046 94.6016 214.139C95.2846 212.887 94.5436 211.503 91.5216 208.389C89.3326 206.133 86.9676 204.288 86.2656 204.288C85.5646 204.288 80.3886 208.996 74.7646 214.75ZM143.79 208.349C141.452 210.555 139.54 212.661 139.54 213.028C139.54 213.396 144.153 218.329 149.79 223.992C160.618 234.868 162.749 235.931 167.317 232.731C168.865 231.647 169.54 230.153 169.54 227.809C169.54 224.901 168.206 223.076 159.712 214.366C154.307 208.823 149.47 204.299 148.962 204.313C148.455 204.327 146.128 206.143 143.79 208.349Z" fill="#60C7CF"/>
<path fill-rule="evenodd" clip-rule="evenodd" d="M107.016 72.8069C105.02 73.8899 91.3313 95.7479 89.1273 101.372C88.8033 102.197 87.9513 103.467 87.2333 104.193C85.3423 106.107 85.6293 109.074 87.9273 111.372C91.8453 115.29 93.8943 113.809 101.113 101.845C114.586 79.5149 115.931 75.7269 111.427 72.7989C109.785 71.7319 108.995 71.7329 107.016 72.8069ZM120.552 73.8889C117.667 76.7749 117.302 75.9609 135.512 107.286C136.658 109.258 138.765 111.532 140.193 112.339C142.544 113.667 142.986 113.628 144.859 111.934C148.405 108.725 147.548 106.001 137.915 89.8719C135.287 85.4719 132.012 79.8469 130.638 77.3719C128.66 73.8099 127.517 72.8089 125.158 72.5679C123.39 72.3879 121.517 72.9249 120.552 73.8889ZM67.9753 107.324C65.0413 110.258 65.3913 113.16 68.9223 115.169C72.2233 117.046 72.6913 118.236 77.8543 137.872C81.7013 152.504 83.5383 156.424 87.4193 158.281C89.0653 159.069 91.0093 160.311 91.7403 161.043C93.8083 163.11 105.2 162.766 109.41 160.509C113.667 158.228 122.641 158.358 126.056 160.75C127.592 161.826 130.476 162.372 134.62 162.372C140.003 162.372 141.481 161.94 145.292 159.254C147.725 157.539 150.186 155.177 150.76 154.004C151.654 152.182 156.163 136.227 159.911 121.629C160.694 118.58 161.8 116.972 163.843 115.916C168.288 113.617 169.05 110.495 165.927 107.372C164.43 105.875 162.594 105.372 158.627 105.372C153.114 105.372 150.927 106.549 150.927 109.516C150.927 110.476 149.86 112.501 148.557 114.016C146.753 116.113 145.289 116.772 142.434 116.772C138.593 116.772 138.791 116.931 130.42 107.122C129.146 105.628 127.096 105.372 116.425 105.372H103.924L100.314 110.396C98.3293 113.16 95.8283 115.89 94.7573 116.463C90.3783 118.807 83.6453 114.719 82.0583 108.753C81.3423 106.062 80.9213 105.852 75.6583 105.574C71.0613 105.33 69.6473 105.652 67.9753 107.324ZM95.3203 126.954C95.6543 127.824 95.9273 132.944 95.9273 138.331C95.9273 145.688 95.5643 148.428 94.4713 149.336C93.6703 150 92.5453 150.254 91.9713 149.899C90.8243 149.191 90.4763 127.156 91.5943 126.039C92.7763 124.857 94.6963 125.328 95.3203 126.954ZM110.995 136.952C111.425 145.206 111.244 148.228 110.253 149.329C107.554 152.328 106.563 148.966 106.823 137.686C107.081 126.444 107.37 125.022 109.269 125.649C110.004 125.891 110.635 130.021 110.995 136.952ZM126.679 136.884C126.951 148.697 126.198 151.672 123.503 149.435C122.265 148.407 121.927 146.029 121.927 138.331C121.927 127.389 122.436 125.132 124.803 125.585C126.165 125.846 126.468 127.665 126.679 136.884ZM141.708 137.622C141.476 147.719 141.163 149.872 139.927 149.872C138.703 149.872 138.375 147.863 138.141 138.936C137.829 126.966 138.097 125.372 140.426 125.372C141.773 125.372 141.95 127.063 141.708 137.622Z" fill="#7F3D98"/>
</svg>
